<?xml version="1.0" encoding="UTF-8" standalone="no"?>
<!-- Created with Inkscape (http://www.inkscape.org/) -->

<svg
   width="210mm"
   height="297mm"
   viewBox="0 0 210 297"
   version="1.1"
   id="svg5"
   xml:space="preserve"
   inkscape:version="1.2.2 (732a01da63, 2022-12-09)"
   sodipodi:docname="Planinaranje.svg"
   xmlns:inkscape="http://www.inkscape.org/namespaces/inkscape"
   xmlns:sodipodi="http://sodipodi.sourceforge.net/DTD/sodipodi-0.dtd"
   xmlns="http://www.w3.org/2000/svg"
   xmlns:svg="http://www.w3.org/2000/svg"><sodipodi:namedview
     id="namedview7"
     pagecolor="#ffffff"
     bordercolor="#000000"
     borderopacity="0.25"
     inkscape:showpageshadow="2"
     inkscape:pageopacity="0.0"
     inkscape:pagecheckerboard="0"
     inkscape:deskcolor="#d1d1d1"
     inkscape:document-units="mm"
     showgrid="false"
     inkscape:zoom="0.71624579"
     inkscape:cx="168.23834"
     inkscape:cy="645.72805"
     inkscape:window-width="1920"
     inkscape:window-height="991"
     inkscape:window-x="-9"
     inkscape:window-y="-9"
     inkscape:window-maximized="1"
     inkscape:current-layer="layer1" /><defs
     id="defs2" /><g
     inkscape:label="Layer 1"
     inkscape:groupmode="layer"
     id="layer1"><ellipse
       style="fill:#1a1a1a;stroke:#ffffff;stroke-width:0.243;stroke-linecap:round;paint-order:stroke fill markers"
       id="path241"
       ry="15.514925"
       rx="14.406716"
       cy="89.395523"
       cx="96.044777" /><g
       id="path295"
       inkscape:transform-center-x="-0.38392816"
       inkscape:transform-center-y="-0.73947211"
       transform="translate(59.473881,44.697761)"><path
         style="color:#000000;fill:#ffffff;stroke-linecap:round;-inkscape-stroke:none;paint-order:stroke fill markers"
         d="m 33.480469,60.904297 -36.2656253,7.365234 -28.6894527,23.376953 -14.539063,34.031246 2.941406,36.89063 19.748047,31.29687 32.0292971,18.53711 36.9765629,1.52539 33.449218,-15.83007 0.01758,-0.0254 22.244143,-29.53907 5.97265,-36.52148 L 95.681641,96.898437 69.017578,71.234375 Z m -0.0098,0.25 35.421875,10.296875 26.576172,25.580078 11.64648,35 -5.95312,36.4043 -22.189454,29.46679 -33.341797,15.78125 -36.8554684,-1.52343 -31.9277346,-18.47461 -19.683593,-31.19727 -2.931641,-36.76953 14.492187,-33.921875 28.5976566,-23.300781 z"
         id="path454" /><path
         style="color:#000000;fill:#1a1a1a;stroke-width:0.243;stroke-linecap:round;-inkscape-stroke:none;paint-order:stroke fill markers"
         d="M 49.499998,87.548498 44.178764,124.04084 8.3710992,119.56109 14.431298,96.523918 c 0,0 0.492957,-15.539597 9.064512,-29.249082 2.779664,-4.44584 4.962558,-5.73601 13.674425,-5.876718 12.2172,-0.197324 31.41489,30.631929 31.41489,30.631929 l 30.684419,3.45669 c 0,0 1.249466,-0.737601 -0.525189,10.307543 -20.59033,0.094 -36.623572,-4.17137 -36.623572,-4.17137 z"
         id="path456"
         sodipodi:nodetypes="ccccssccccc" /></g><g
       id="path519"
       inkscape:transform-center-x="0.34622967"
       inkscape:transform-center-y="-0.094810424"
       transform="translate(36.201493,7.0186567)"><path
         style="color:#000000;fill:#ffffff;stroke-linecap:round;-inkscape-stroke:none;paint-order:stroke fill markers"
         d="m 55.480469,166.58594 -13.751953,4.81054 -9.94336,10.65235 -3.851562,14.05273 3.117187,14.23438 9.376953,11.15234 13.486328,5.51953 14.503907,-1.38086 12.203125,-7.96289 0.01563,-0.0273 7.08789,-12.69531 0.378907,-14.56641 -6.435547,-13.07227 -11.771485,-8.58593 z m 0.02539,0.24804 14.294922,2.11329 11.675781,8.51562 6.382813,12.9668 -0.375,14.44531 -7.044922,12.61719 -12.103516,7.89843 -14.386718,1.36915 -13.373047,-5.47266 -9.300781,-11.0625 -3.091797,-14.11524 3.820312,-13.9375 9.861328,-10.56445 z"
         id="path523" /><path
         style="color:#000000;fill:#1a1a1a;stroke-width:0.243;stroke-linecap:round;-inkscape-stroke:none;paint-order:stroke fill markers"
         d="m 70.92537,221.64178 -7.350061,-37.50587 -16.292916,-12.6625 -1.978628,21.83981 -18.572734,27.31015 -11.971727,-4.93977 16.027409,-26.92378 -0.07264,-20.95175 1.137412,-11.81066 27.284249,0.64465 15.418615,14.09139 6.038662,14.12784 3.317563,35.93166 z"
         id="path525"
         sodipodi:nodetypes="cccccccccccccc" /></g><g
       id="path556"
       inkscape:transform-center-x="0.8095425"
       inkscape:transform-center-y="-1.088124"
       transform="matrix(0.8079958,0,0,1,15.168537,0)"><path
         style="color:#000000;fill:#ffffff;stroke-linecap:round;-inkscape-stroke:none;paint-order:stroke fill markers"
         d="M 32.960937,53.099609 -1.4492187,65.320312 -13.347656,99.841797 6.2226562,130.66992 l 36.3046878,3.91992 0.04102,-0.041 25.658203,-25.89844 -4.257812,-36.267578 z m -0.0293,0.269532 30.81055,19.158203 L 67.970703,108.5625 42.435547,134.33594 6.3652344,130.44141 -13.080078,99.810547 -1.2578125,65.509766 Z"
         id="path560" /><path
         style="color:#000000;fill:#1a1a1a;stroke-width:0.243;stroke-linecap:round;-inkscape-stroke:none;paint-order:stroke fill markers"
         d="m 64.276121,163.27612 c 0,0 -7.517605,3.23178 -12.91557,-1.69076 -5.776646,-5.26787 -7.965356,-11.15656 -6.94837,-18.90807 1.184949,-9.03173 2.921128,-16.46249 8.906566,-23.32913 5.576942,-6.398 5.802324,-7.70099 13.982316,-9.96471 5.905845,-1.63438 11.700008,1.12086 11.700008,1.12086 L 71.05414,135.9417 Z"
         id="path562"
         sodipodi:nodetypes="cssssccc" /></g><g
       id="path618"
       inkscape:transform-center-x="-6.8682988"
       inkscape:transform-center-y="0.33563237"
       transform="matrix(0.9921917,0.1247222,-0.1080131,0.85926723,30.035383,-88.050875)"><path
         style="color:#000000;fill:#ffffff;stroke-linecap:round;-inkscape-stroke:none;paint-order:stroke fill markers"
         d="m 176.78711,136.57812 -28.32422,4.1836 -14.38867,24.7539 10.38281,26.6836 27.33594,8.51953 0.0469,-0.0332 23.65625,-16.02539 2.22266,-28.54688 z m -0.0801,0.25782 20.76172,19.375 -2.20508,28.3125 -23.51172,15.92968 -27.11133,-8.45117 -10.29687,-26.46484 14.27148,-24.55078 z"
         id="path622" /><path
         style="color:#000000;fill:#1a1a1a;stroke-width:0.243;stroke-linecap:round;-inkscape-stroke:none;paint-order:stroke fill markers"
         d="m 154.77985,348.66977 -2.47344,0.0114 c -1.35242,-31.80255 -7.83081,-114.02572 -7.83081,-114.02572 4.47705,0.0885 -4.87591,0.17707 6.78354,0.2656 z"
         id="path624"
         sodipodi:nodetypes="ccccc" /></g></g></svg>
